<svg width="16" height="16" viewBox="0 0 16 16" fill="none" xmlns="http://www.w3.org/2000/svg">
<path d="M3.33203 10.6663L6.66536 8.66634M9.33203 7.33301L12.6654 5.33301M7.9987 3.33301V6.66634M7.9987 9.33301V12.6663M3.33203 5.33301L6.66536 7.33301M9.33203 8.66634L12.6654 10.6663M13.6654 5.99967V9.66634M8.9987 13.6663L12.6654 11.6663M2.9987 11.6663L6.9987 13.6663M2.33203 9.99967V5.99967M2.9987 4.33301L6.9987 2.33301M12.9987 4.33301L8.9987 2.33301" stroke="#D4AF37" stroke-linejoin="round"/>
<path d="M8 3.33301C8.55228 3.33301 9 2.88529 9 2.33301C9 1.78072 8.55228 1.33301 8 1.33301C7.44772 1.33301 7 1.78072 7 2.33301C7 2.88529 7.44772 3.33301 8 3.33301Z" stroke="#D4AF37" stroke-linejoin="round"/>
<path d="M8 14.666C8.55228 14.666 9 14.2183 9 13.666C9 13.1137 8.55228 12.666 8 12.666C7.44772 12.666 7 13.1137 7 13.666C7 14.2183 7.44772 14.666 8 14.666Z" stroke="#D4AF37" stroke-linejoin="round"/>
<path d="M2.33203 6C2.88432 6 3.33203 5.55228 3.33203 5C3.33203 4.44772 2.88432 4 2.33203 4C1.77975 4 1.33203 4.44772 1.33203 5C1.33203 5.55228 1.77975 6 2.33203 6Z" stroke="#D4AF37" stroke-linejoin="round"/>
<path d="M13.6641 6C14.2163 6 14.6641 5.55228 14.6641 5C14.6641 4.44772 14.2163 4 13.6641 4C13.1118 4 12.6641 4.44772 12.6641 5C12.6641 5.55228 13.1118 6 13.6641 6Z" stroke="#D4AF37" stroke-linejoin="round"/>
<path d="M13.6641 12C14.2163 12 14.6641 11.5523 14.6641 11C14.6641 10.4477 14.2163 10 13.6641 10C13.1118 10 12.6641 10.4477 12.6641 11C12.6641 11.5523 13.1118 12 13.6641 12Z" stroke="#D4AF37" stroke-linejoin="round"/>
<path d="M2.33203 12C2.88432 12 3.33203 11.5523 3.33203 11C3.33203 10.4477 2.88432 10 2.33203 10C1.77975 10 1.33203 10.4477 1.33203 11C1.33203 11.5523 1.77975 12 2.33203 12Z" stroke="#D4AF37" stroke-linejoin="round"/>
<path d="M7.9974 6.5L9.33073 7.25V8.75L7.9974 9.5L6.66406 8.75V7.25L7.9974 6.5Z" stroke="#D4AF37" stroke-linejoin="round"/>
</svg>
