<svg width="24" height="24" viewBox="0 0 24 24" fill="none" xmlns="http://www.w3.org/2000/svg">
<path d="M15.5 11C15.5 10.5404 15.4095 10.0852 15.2336 9.66061C15.0577 9.23597 14.7999 8.85013 14.4749 8.52513C14.1499 8.20012 13.764 7.94231 13.3394 7.76642C12.9148 7.59053 12.4596 7.5 12 7.5C11.5404 7.5 11.0852 7.59053 10.6606 7.76642C10.236 7.94231 9.85013 8.20012 9.52513 8.52513C9.20012 8.85013 8.94231 9.23597 8.76642 9.66061C8.59053 10.0852 8.5 10.5404 8.5 11C8.5 11.9283 8.86875 12.8185 9.52513 13.4749C10.1815 14.1313 11.0717 14.5 12 14.5C12.9283 14.5 13.8185 14.1313 14.4749 13.4749C15.1313 12.8185 15.5 11.9283 15.5 11Z" stroke="#D4AF37" stroke-width="1.5" stroke-linecap="round" stroke-linejoin="round"/>
<path d="M15.4824 11.35C15.805 11.4493 16.144 11.4993 16.4994 11.5M16.4994 11.5C17.1767 11.4999 17.8394 11.3033 18.4071 10.934C18.9749 10.5647 19.4233 10.0386 19.698 9.41957C19.9727 8.80049 20.0619 8.115 19.9547 7.44624C19.8476 6.77748 19.5487 6.15418 19.0943 5.65193C18.6399 5.14967 18.0496 4.79004 17.3949 4.61664C16.7402 4.44325 16.0492 4.46354 15.4058 4.67506C14.7624 4.88657 14.1941 5.28023 13.77 5.80828C13.3459 6.33634 13.0841 6.97611 13.0164 7.65M16.4994 11.5C19.5374 11.5 21.9994 13.739 21.9994 16.5M10.9824 7.65C10.9101 6.93242 10.6179 6.2547 10.1457 5.70952C9.67359 5.16434 9.04455 4.77832 8.34466 4.60427C7.64477 4.43022 6.90819 4.47663 6.23568 4.73716C5.56317 4.99769 4.98756 5.4596 4.58758 6.05974C4.1876 6.65987 3.98278 7.36891 4.00113 8.08989C4.01949 8.81086 4.26012 9.50857 4.69011 10.0876C5.12011 10.6666 5.71847 11.0986 6.40337 11.3246C7.08826 11.5506 7.82624 11.5594 8.51637 11.35M17.4994 19.5C17.4994 16.739 15.0374 14.5 11.9994 14.5C8.96137 14.5 6.49937 16.739 6.49937 19.5" stroke="#D4AF37" stroke-width="1.5" stroke-linecap="round" stroke-linejoin="round"/>
<path d="M7.5 11.5C4.462 11.5 2 13.739 2 16.5" stroke="#D4AF37" stroke-width="1.5" stroke-linecap="round" stroke-linejoin="round"/>
</svg>
