<svg width="29" height="26" viewBox="0 0 29 26" fill="none" xmlns="http://www.w3.org/2000/svg">
<path d="M1 5V22.3333C1 23.0406 1.28095 23.7189 1.78105 24.219C2.28115 24.719 2.95942 25 3.66667 25M3.66667 25C4.37391 25 5.05219 24.719 5.55228 24.219C6.05238 23.7189 6.33333 23.0406 6.33333 22.3333V3.66667C6.33333 2.95942 6.61428 2.28115 7.11438 1.78105C7.61448 1.28095 8.29276 1 9 1H25C25.7072 1 26.3855 1.28095 26.8856 1.78105C27.3857 2.28115 27.6667 2.95942 27.6667 3.66667V21C27.6667 22.0609 27.2452 23.0783 26.4951 23.8284C25.7449 24.5786 24.7275 25 23.6667 25H3.66667ZM13 7.66667H21M13 13H21M13 18.3333H21" stroke="#D4AF37" stroke-width="2" stroke-linecap="round" stroke-linejoin="round"/>
</svg>
