<svg width="180" height="157" viewBox="0 0 180 157" fill="none" xmlns="http://www.w3.org/2000/svg">
<path d="M-44 93C-44 110.673 -29.673 125 -12 125C-12 142.673 -26.327 157 -44 157C-61.673 157 -76 142.673 -76 125C-76 107.327 -61.673 93 -44 93ZM20 93C20 110.673 34.327 125 52 125C52 142.673 37.673 157 20 157C2.327 157 -12 142.673 -12 125C5.673 125 20 110.673 20 93ZM84 93C84 110.673 98.327 125 116 125C116 142.673 101.673 157 84 157C66.327 157 52 142.673 52 125C69.673 125 84 110.673 84 93ZM148 93C165.673 93 180 107.327 180 125C180 142.673 165.673 157 148 157C130.327 157 116 142.673 116 125C133.673 125 148 110.673 148 93ZM-44 29C-44 46.673 -29.673 61 -12 61C-29.673 61 -44 75.327 -44 93C-61.673 93 -76 78.673 -76 61C-76 43.327 -61.673 29 -44 29ZM20 29C20 46.673 34.327 61 52 61C52 78.673 37.673 93 20 93C2.327 93 -12 78.673 -12 61C-12 43.327 2.327 29 20 29ZM84 29C101.673 29 116 43.327 116 61C116 78.673 101.673 93 84 93C66.327 93 52 78.673 52 61C69.673 61 84 46.673 84 29ZM148 29C165.673 29 180 43.327 180 61C180 78.673 165.673 93 148 93C148 75.327 133.673 61 116 61C133.673 61 148 46.673 148 29ZM-44 -35C-44 -17.327 -29.673 -3 -12 -3C-29.673 -3 -44 11.327 -44 29C-61.673 29 -76 14.673 -76 -3C-76 -20.673 -61.673 -35 -44 -35ZM20 -35C37.673 -35 52 -20.673 52 -3C34.327 -3 20 11.327 20 29C2.327 29 -12 14.673 -12 -3C-12 -20.673 2.327 -35 20 -35ZM84 -35C101.673 -35 116 -20.673 116 -3C116 14.673 101.673 29 84 29C84 11.327 69.673 -3 52 -3C52 -20.673 66.327 -35 84 -35ZM148 -35C165.673 -35 180 -20.673 180 -3C180 14.673 165.673 29 148 29C148 11.327 133.673 -3 116 -3C133.673 -3 148 -17.327 148 -35ZM-44 -99C-26.327 -99 -12 -84.673 -12 -67C-29.673 -67 -44 -52.673 -44 -35C-61.673 -35 -76 -49.327 -76 -67C-76 -84.673 -61.673 -99 -44 -99ZM20 -99C37.673 -99 52 -84.673 52 -67C34.327 -67 20 -52.673 20 -35C20 -52.673 5.673 -67 -12 -67C-12 -84.673 2.327 -99 20 -99ZM84 -99C101.673 -99 116 -84.673 116 -67C98.327 -67 84 -52.673 84 -35C84 -52.673 69.673 -67 52 -67C52 -84.673 66.327 -99 84 -99ZM148 -99C165.673 -99 180 -84.673 180 -67C180 -49.327 165.673 -35 148 -35C148 -52.673 133.673 -67 116 -67C116 -84.673 130.327 -99 148 -99Z" fill="white" fill-opacity="0.2"/>
</svg>
