<svg width="236" height="156" viewBox="0 0 236 156" fill="none" xmlns="http://www.w3.org/2000/svg">
<g opacity="0.2" clip-path="url(#clip0_196_4841)">
<path d="M79.2854 40.5059H40.5078V79.2835H79.2854V40.5059Z" fill="#D4AF37"/>
<path d="M195.618 40.5059H156.84V79.2835H195.618V40.5059Z" fill="#D4AF37"/>
<path d="M156.84 79.2832H118.062V118.061H156.84V79.2832Z" fill="#D4AF37"/>
<path d="M118.063 118.062H79.2852V156.84H118.063V118.062Z" fill="#D4AF37"/>
<path d="M79.2841 81.013H1.72894C0.740975 81.013 0 80.2722 0 79.2841V1.72889C0 0.740928 0.740975 0 1.72894 0H79.2841C80.2722 0 81.013 0.740928 81.013 1.72889V79.2841C81.013 80.2722 80.2722 81.013 79.2841 81.013ZM3.45787 77.5552H77.5552V3.45785H3.45787V77.5552Z" fill="white"/>
<path d="M118.061 119.79H40.5063C39.5184 119.79 38.7773 119.049 38.7773 118.061V40.5063C38.7773 39.5182 39.5184 38.7773 40.5063 38.7773H118.061C119.05 38.7773 119.791 39.5182 119.791 40.5063V118.061C119.791 119.049 119.05 119.79 118.061 119.79ZM42.2352 116.333H116.333V42.2352H42.2352V116.333Z" fill="white"/>
<path d="M195.615 81.013H118.061C117.073 81.013 116.332 80.2722 116.332 79.2841V1.72889C116.332 0.740928 117.073 0 118.061 0H195.615C196.605 0 197.344 0.740928 197.344 1.72889V79.2841C197.344 80.2722 196.481 81.013 195.615 81.013ZM119.79 77.5552H193.886V3.45785H119.79V77.5552Z" fill="white"/>
<path d="M234.273 119.79H156.717C155.729 119.79 154.988 119.049 154.988 118.061V40.5063C154.988 39.5182 155.729 38.7773 156.717 38.7773H234.273C235.26 38.7773 236.001 39.5182 236.001 40.5063V118.061C236.001 119.049 235.26 119.79 234.273 119.79ZM158.57 116.333H232.668V42.2352H158.57V116.333Z" fill="white"/>
<path d="M79.2841 197.346H1.72894C0.740975 197.346 0 196.605 0 195.617V118.061C0 117.073 0.740975 116.332 1.72894 116.332H79.2841C80.2722 116.332 81.013 117.073 81.013 118.061V195.617C81.013 196.481 80.2722 197.346 79.2841 197.346ZM3.45787 193.888H77.5552V119.79H3.45787V193.888Z" fill="white"/>
<path d="M118.061 235.999H40.5063C39.5184 235.999 38.7773 235.258 38.7773 234.27V156.715C38.7773 155.727 39.5184 154.986 40.5063 154.986H118.061C119.05 154.986 119.791 155.727 119.791 156.715V234.27C119.791 235.258 119.05 235.999 118.061 235.999ZM42.2352 232.542H116.333V158.444H42.2352V232.542Z" fill="white"/>
<path d="M195.615 197.346H118.061C117.073 197.346 116.332 196.605 116.332 195.617V118.061C116.332 117.073 117.073 116.332 118.061 116.332H195.615C196.605 116.332 197.344 117.073 197.344 118.061V195.617C197.344 196.481 196.481 197.346 195.615 197.346ZM119.79 193.888H193.886V119.79H119.79V193.888Z" fill="white"/>
<path d="M234.273 235.999H156.717C155.729 235.999 154.988 235.258 154.988 234.27V156.715C154.988 155.727 155.729 154.986 156.717 154.986H234.273C235.26 154.986 236.001 155.727 236.001 156.715V234.27C236.001 235.258 235.26 235.999 234.273 235.999ZM158.57 232.542H232.668V158.444H158.57V232.542Z" fill="white"/>
</g>
<defs>
<clipPath id="clip0_196_4841">
<rect width="236" height="236" fill="white"/>
</clipPath>
</defs>
</svg>
