<svg width="172" height="127" viewBox="0 0 172 127" fill="none" xmlns="http://www.w3.org/2000/svg">
<g opacity="0.2" clip-path="url(#clip0_196_4859)">
<path d="M139.966 126.977C129.673 126.977 117.447 124.081 103.614 118.131C76.5899 106.709 46.8315 85.4766 19.6469 58.2917C-7.53777 31.1073 -28.7706 1.34888 -40.1914 -25.6748C-51.773 -53.0204 -51.934 -74.2532 -40.6741 -85.674C-29.4142 -96.9339 -8.02021 -96.7731 19.3252 -85.1915C46.3489 -73.7706 76.1071 -52.5378 103.292 -25.3531C130.477 1.83149 151.709 31.5897 163.131 58.6136C174.713 85.9595 174.873 107.192 163.613 118.613C157.982 124.081 149.939 126.977 139.966 126.977ZM-17.0282 -91.304C-26.1969 -91.304 -33.5963 -88.7303 -38.7437 -83.7438C-60.7809 -61.7065 -33.7571 1.18813 21.5773 56.3615C76.7508 111.535 139.646 138.559 161.682 116.682C172.138 106.228 171.817 85.9595 160.718 59.5786C149.458 32.8766 128.386 3.44004 101.522 -23.4229C74.6595 -50.2857 45.0622 -71.3578 18.5209 -82.6178C4.68729 -88.4086 -7.21593 -91.304 -17.0282 -91.304Z" fill="white"/>
<path d="M119.862 122.634C88.3335 122.634 46.5111 102.366 10.962 66.8174C-40.5119 15.3437 -59.8146 -49.3204 -32.1474 -76.9875C-4.31937 -104.816 60.1838 -85.5129 111.658 -33.8783C136.59 -8.94553 154.766 19.5258 162.971 46.5495C171.174 73.8948 168.279 96.4155 154.766 109.928C146.241 118.614 134.177 122.634 119.862 122.634ZM3.08004 -87.1215C-10.7536 -87.1215 -22.1744 -83.1001 -30.0562 -75.0573C-56.7583 -48.3552 -37.4557 14.5394 13.053 65.048C37.6639 89.6594 65.8138 107.515 92.3549 115.718C118.735 123.761 140.29 121.025 153.159 108.158C166.026 95.2892 168.761 73.7343 160.719 47.354C152.676 20.8127 134.66 -7.4979 110.049 -31.948C85.4381 -56.5589 57.2882 -74.4139 30.7471 -82.6175C20.6132 -85.6738 11.4445 -87.1215 3.08004 -87.1215Z" fill="white"/>
<path d="M97.6636 119.901C91.8727 119.901 85.7604 119.418 79.4871 118.131C52.4632 113.145 25.1178 98.0237 2.43713 75.5047C-20.2435 52.9844 -35.364 25.4781 -40.1897 -1.54561C-45.1762 -28.7302 -39.2246 -52.5369 -23.2999 -68.3007C9.19302 -100.794 73.857 -89.2119 120.505 -42.4029C167.315 4.40617 178.895 68.9092 146.403 101.403C134.018 113.466 117.127 119.901 97.6636 119.901ZM25.4395 -84.2254C7.10203 -84.2254 -9.46626 -78.4346 -21.5304 -66.5312C-36.6509 -51.4109 -42.4417 -28.4084 -37.616 -2.02821C-32.7904 24.5131 -17.8309 51.3759 4.3672 73.5746C26.5654 95.7728 53.4282 110.732 79.9695 115.558C106.35 120.382 129.192 114.592 144.473 99.4725C176.001 67.9442 164.419 5.04952 118.575 -40.6335C90.2642 -68.9441 55.3586 -84.2254 25.4395 -84.2254Z" fill="white"/>
<path d="M73.695 118.292C45.7061 118.292 16.591 106.71 -6.08962 84.0304C-48.073 42.0464 -51.9334 -22.6175 -14.7757 -59.7753C22.3819 -96.9329 87.0458 -93.2332 129.03 -51.089C149.296 -30.8212 161.522 -4.60177 163.131 22.5829C164.738 49.7675 155.731 74.7009 137.716 92.8769C120.504 109.928 97.5016 118.292 73.695 118.292ZM49.2447 -82.7776C26.0814 -82.7776 3.72261 -74.574 -12.8455 -58.0058C-49.0381 -21.8132 -45.1775 41.0812 -4.15923 82.1003C36.8589 123.118 99.7535 126.978 135.946 90.7864C153.479 73.2521 162.327 48.9632 160.718 22.5829C159.109 -3.95824 147.206 -29.3736 127.421 -49.3196C105.062 -71.3569 76.4293 -82.7776 49.2447 -82.7776Z" fill="white"/>
<path d="M49.2436 118.291C25.2761 118.291 2.43466 109.926 -14.777 92.716C-52.0955 55.3968 -48.2351 -9.10623 -6.09087 -51.0895C35.8924 -93.0729 100.557 -96.9335 137.715 -59.7758C175.033 -22.4573 171.173 42.0459 129.029 84.0299C106.347 106.709 77.2324 118.291 49.2436 118.291ZM73.6937 -82.7782C46.3482 -82.7782 17.8768 -71.5183 -4.32123 -49.3202C-45.3395 -8.30196 -49.2001 54.5927 -13.0075 90.7859C23.1849 126.978 86.0796 123.117 127.097 82.0982C168.116 41.0807 171.976 -21.8139 135.785 -58.0063C119.054 -74.5745 96.857 -82.7782 73.6937 -82.7782Z" fill="white"/>
<path d="M25.2752 119.901C5.65092 119.901 -11.2389 113.466 -23.4639 101.403C-39.2278 85.6379 -45.3403 61.8316 -40.3538 34.647C-35.3672 7.62328 -20.2468 -19.7223 2.27306 -42.4029C49.082 -89.2119 113.585 -100.794 146.078 -68.3007C178.571 -35.8078 166.989 28.8561 120.18 75.5047C97.4995 98.1842 70.1541 113.305 43.1304 118.131C37.1788 119.258 31.0661 119.901 25.2752 119.901ZM97.4995 -84.2254C67.5804 -84.2254 32.6746 -68.9441 4.36405 -40.6335C-17.834 -18.4354 -32.7936 8.42755 -37.6193 34.9687C-42.445 61.349 -36.6542 84.1908 -21.5337 99.4725C-6.41322 114.592 16.5891 120.382 42.9693 115.558C69.5106 110.732 96.3736 95.7728 118.572 73.5746C164.254 27.8909 175.836 -35.0035 144.47 -66.5312C132.405 -78.4346 115.837 -84.2254 97.4995 -84.2254Z" fill="white"/>
<path d="M2.91698 122.635C-11.2383 122.635 -23.4635 118.614 -32.1497 109.926C-59.9777 82.0984 -40.6749 17.596 10.9598 -33.8778C62.4336 -85.3517 127.097 -104.654 154.764 -76.9872C182.592 -49.1592 163.29 15.3439 111.655 66.8178C76.2671 102.367 34.6056 122.635 2.91698 122.635ZM119.859 -87.1211C111.494 -87.1211 102.165 -85.6734 92.3527 -82.6172C65.8115 -74.5744 37.5009 -56.5585 13.0507 -31.9476C-11.5602 -7.33672 -29.4152 20.8131 -37.6188 47.3542C-45.6616 73.7348 -42.9269 95.2896 -30.0585 108.158C-17.1901 121.025 4.36462 123.761 30.7448 115.718C57.2861 107.675 85.5967 89.6599 110.047 65.0483C134.658 40.4374 152.513 12.2878 160.717 -14.2535C168.759 -40.6339 166.024 -62.1884 153.157 -75.057C144.952 -83.0997 133.692 -87.1211 119.859 -87.1211Z" fill="white"/>
<path d="M-17.0282 126.977C-27.0012 126.977 -35.0441 124.243 -40.6741 118.613C-51.934 107.352 -51.773 85.9595 -40.1914 58.6136C-28.7706 31.5897 -7.53777 1.83149 19.6469 -25.3531C46.8315 -52.5378 76.5899 -73.7706 103.614 -85.1915C130.959 -96.7731 152.192 -96.9339 163.613 -85.674C175.033 -74.4142 174.713 -53.0204 163.131 -25.6748C151.709 1.34888 130.477 31.1073 103.292 58.2917C76.1071 85.4766 46.3489 106.709 19.3252 118.131C5.49157 123.921 -6.73333 126.977 -17.0282 126.977ZM139.806 -91.304C110.37 -91.304 63.7215 -65.5671 21.5773 -23.4229C-5.2857 3.44004 -26.3578 33.0375 -37.6178 59.5786C-48.7168 85.7974 -49.1993 106.066 -38.5828 116.682C-27.9664 127.3 -7.85945 126.817 18.5209 115.718C45.2229 104.458 74.6595 83.3861 101.522 56.5224C156.695 1.34889 183.72 -61.5457 161.844 -83.5829C156.374 -88.8911 148.975 -91.304 139.806 -91.304Z" fill="white"/>
</g>
<defs>
<clipPath id="clip0_196_4859">
<rect width="221" height="221" fill="white" transform="translate(-49 -94)"/>
</clipPath>
</defs>
</svg>
