<svg width="32" height="32" viewBox="0 0 32 32" fill="none" xmlns="http://www.w3.org/2000/svg">
<path d="M28.0013 10.6663C28.7124 10.6663 29.3346 10.9329 29.868 11.4663C30.4013 11.9996 30.668 12.6218 30.668 13.3329V15.9996C30.668 16.1552 30.6457 16.3218 30.6013 16.4996C30.5569 16.6774 30.5124 16.844 30.468 16.9996L26.468 26.3996C26.268 26.844 25.9346 27.2218 25.468 27.5329C25.0013 27.844 24.5124 27.9996 24.0013 27.9996H9.33464V10.6663L17.3346 2.73294C17.668 2.3996 18.0626 2.20538 18.5186 2.15027C18.9746 2.09516 19.4133 2.17827 19.8346 2.3996C20.256 2.62094 20.5671 2.93205 20.768 3.33294C20.9689 3.73382 21.0133 4.14494 20.9013 4.56627L19.4013 10.6663H28.0013ZM12.0013 11.7996V25.3329H24.0013L28.0013 15.9996V13.3329H16.0013L17.8013 5.9996L12.0013 11.7996ZM5.33464 27.9996C4.6013 27.9996 3.97375 27.7387 3.45197 27.2169C2.93019 26.6952 2.66886 26.0672 2.66797 25.3329V13.3329C2.66797 12.5996 2.9293 11.972 3.45197 11.4503C3.97464 10.9285 4.60219 10.6672 5.33464 10.6663H9.33464V13.3329H5.33464V25.3329H9.33464V27.9996H5.33464Z" fill="#D4AF37"/>
</svg>
