<svg width="1440" height="524" viewBox="0 0 1440 524" fill="none" xmlns="http://www.w3.org/2000/svg">
<g opacity="0.18">
<path d="M1482 284.323C1482 284.323 1110.81 -154.623 770.711 -117.807C497.028 -88.1814 506.088 316.941 243.717 249.504C102.868 213.302 -20 36.8322 -20 36.8322" stroke="white" stroke-opacity="0.54"/>
<path d="M1482 523.28C1482 523.28 1110.81 84.3345 770.711 121.15C497.028 150.776 506.088 555.898 243.717 488.461C102.868 452.259 -20 275.789 -20 275.789" stroke="white" stroke-opacity="0.54"/>
<path d="M1482 295.702C1482 295.702 1110.81 -143.244 770.711 -106.428C497.028 -76.8025 506.088 328.32 243.717 260.883C102.868 224.681 -20 48.2111 -20 48.2111" stroke="white" stroke-opacity="0.54"/>
<path d="M1482 307.081C1482 307.081 1110.81 -131.865 770.711 -95.0494C497.028 -65.4235 506.088 339.699 243.717 272.262C102.868 236.06 -20 59.59 -20 59.59" stroke="white" stroke-opacity="0.54"/>
<path d="M1482 318.46C1482 318.46 1110.81 -120.486 770.711 -83.6705C497.028 -54.0446 506.088 351.078 243.717 283.641C102.868 247.438 -20 70.9689 -20 70.9689" stroke="white" stroke-opacity="0.54"/>
<path d="M1482 329.839C1482 329.839 1110.81 -109.107 770.711 -72.2916C497.028 -42.6657 506.088 362.457 243.717 295.02C102.868 258.817 -20 82.3478 -20 82.3478" stroke="white" stroke-opacity="0.54"/>
<path d="M1482 341.218C1482 341.218 1110.81 -97.728 770.711 -60.9127C497.028 -31.2868 506.088 373.836 243.717 306.398C102.868 270.196 -20 93.7267 -20 93.7267" stroke="white" stroke-opacity="0.54"/>
<path d="M1482 352.597C1482 352.597 1110.81 -86.3491 770.711 -49.5337C497.028 -19.9079 506.088 385.215 243.717 317.777C102.868 281.575 -20 105.106 -20 105.106" stroke="white" stroke-opacity="0.54"/>
<path d="M1482 363.976C1482 363.976 1110.81 -74.9702 770.711 -38.1548C497.028 -8.52901 506.088 396.593 243.717 329.156C102.868 292.954 -20 116.485 -20 116.485" stroke="white" stroke-opacity="0.54"/>
<path d="M1482 375.355C1482 375.355 1110.81 -63.5913 770.711 -26.7759C497.028 2.84989 506.088 407.972 243.717 340.535C102.868 304.333 -20 127.863 -20 127.863" stroke="white" stroke-opacity="0.54"/>
<path d="M1482 386.734C1482 386.734 1110.81 -52.2124 770.711 -15.397C497.028 14.2288 506.088 419.351 243.717 351.914C102.868 315.712 -20 139.242 -20 139.242" stroke="white" stroke-opacity="0.54"/>
<path d="M1482 398.112C1482 398.112 1110.81 -40.8335 770.711 -4.01812C497.028 25.6077 506.088 430.73 243.717 363.293C102.868 327.091 -20 150.621 -20 150.621" stroke="white" stroke-opacity="0.54"/>
<path d="M1482 409.491C1482 409.491 1110.81 -29.4546 770.711 7.36078C497.028 36.9866 506.088 442.109 243.717 374.672C102.868 338.47 -20 162 -20 162" stroke="white" stroke-opacity="0.54"/>
<path d="M1482 420.87C1482 420.87 1110.81 -18.0757 770.711 18.7397C497.028 48.3655 506.088 453.488 243.717 386.051C102.868 349.849 -20 173.379 -20 173.379" stroke="white" stroke-opacity="0.54"/>
<path d="M1482 432.249C1482 432.249 1110.81 -6.69679 770.711 30.1186C497.028 59.7444 506.088 464.867 243.717 397.43C102.868 361.228 -20 184.758 -20 184.758" stroke="white" stroke-opacity="0.54"/>
<path d="M1482 443.628C1482 443.628 1110.81 4.68211 770.711 41.4975C497.028 71.1233 506.088 476.246 243.717 408.809C102.868 372.606 -20 196.137 -20 196.137" stroke="white" stroke-opacity="0.54"/>
<path d="M1482 455.007C1482 455.007 1110.81 16.061 770.711 52.8764C497.028 82.5022 506.088 487.625 243.717 420.188C102.868 383.985 -20 207.516 -20 207.516" stroke="white" stroke-opacity="0.54"/>
<path d="M1482 466.386C1482 466.386 1110.81 27.4399 770.711 64.2553C497.028 93.8811 506.088 499.004 243.717 431.566C102.868 395.364 -20 218.895 -20 218.895" stroke="white" stroke-opacity="0.54"/>
<path d="M1482 477.765C1482 477.765 1110.81 38.8188 770.711 75.6342C497.028 105.26 506.088 510.383 243.717 442.945C102.868 406.743 -20 230.274 -20 230.274" stroke="white" stroke-opacity="0.54"/>
<path d="M1482 489.144C1482 489.144 1110.81 50.1977 770.711 87.0131C497.028 116.639 506.088 521.761 243.717 454.324C102.868 418.122 -20 241.652 -20 241.652" stroke="white" stroke-opacity="0.54"/>
<path d="M1482 500.523C1482 500.523 1110.81 61.5766 770.711 98.392C497.028 128.018 506.088 533.14 243.717 465.703C102.868 429.501 -20 253.031 -20 253.031" stroke="white" stroke-opacity="0.54"/>
<path d="M1482 511.902C1482 511.902 1110.81 72.9556 770.711 109.771C497.028 139.397 506.088 544.519 243.717 477.082C102.868 440.88 -20 264.41 -20 264.41" stroke="white" stroke-opacity="0.54"/>
</g>
</svg>
