<svg width="123" height="123" viewBox="0 0 123 123" fill="none" xmlns="http://www.w3.org/2000/svg">
<path d="M123.001 41.732C123.001 59.3213 108.742 73.5802 91.1529 73.5802C73.5636 73.5802 59.3047 59.3213 59.3047 41.732C59.3047 24.1427 73.5636 9.88379 91.1529 9.88379C108.742 9.88379 123.001 24.1427 123.001 41.732Z" fill="#D4AF37"/>
<foreignObject x="-21" y="-21" width="165" height="165"><div xmlns="http://www.w3.org/1999/xhtml" style="backdrop-filter:blur(10.5px);clip-path:url(#bgblur_0_196_6139_clip_path);height:100%;width:100%"></div></foreignObject><g filter="url(#filter0_iiii_196_6139)" data-figma-bg-blur-radius="21">
<path d="M123 123C123 106.847 119.819 90.853 113.637 75.9299C107.456 61.0069 98.3958 47.4475 86.9741 36.0259C75.5525 24.6043 61.9931 15.5441 47.0701 9.36282C32.147 3.18149 16.1526 -7.06052e-07 0 0L5.3765e-06 123H123Z" fill="url(#paint0_linear_196_6139)"/>
</g>
<path d="M75.7773 41.7324C75.7773 50.2238 82.661 57.1074 91.1523 57.1074C99.6437 57.1074 106.527 50.2238 106.527 41.7324C106.527 33.241 99.6437 26.3574 91.1523 26.3574C82.661 26.3574 75.7773 33.241 75.7773 41.7324Z" fill="url(#paint1_linear_196_6139)"/>
<defs>
<filter id="filter0_iiii_196_6139" x="-21" y="-21" width="165" height="165" filterUnits="userSpaceOnUse" color-interpolation-filters="sRGB">
<feFlood flood-opacity="0" result="BackgroundImageFix"/>
<feBlend mode="normal" in="SourceGraphic" in2="BackgroundImageFix" result="shape"/>
<feColorMatrix in="SourceAlpha" type="matrix" values="0 0 0 0 0 0 0 0 0 0 0 0 0 0 0 0 0 0 127 0" result="hardAlpha"/>
<feOffset dx="10" dy="10"/>
<feGaussianBlur stdDeviation="11.5"/>
<feComposite in2="hardAlpha" operator="arithmetic" k2="-1" k3="1"/>
<feColorMatrix type="matrix" values="0 0 0 0 0.831373 0 0 0 0 0.686275 0 0 0 0 0.215686 0 0 0 0.18 0"/>
<feBlend mode="normal" in2="shape" result="effect1_innerShadow_196_6139"/>
<feColorMatrix in="SourceAlpha" type="matrix" values="0 0 0 0 0 0 0 0 0 0 0 0 0 0 0 0 0 0 127 0" result="hardAlpha"/>
<feOffset dy="2"/>
<feGaussianBlur stdDeviation="3"/>
<feComposite in2="hardAlpha" operator="arithmetic" k2="-1" k3="1"/>
<feColorMatrix type="matrix" values="0 0 0 0 1 0 0 0 0 1 0 0 0 0 1 0 0 0 0.05 0"/>
<feBlend mode="normal" in2="effect1_innerShadow_196_6139" result="effect2_innerShadow_196_6139"/>
<feColorMatrix in="SourceAlpha" type="matrix" values="0 0 0 0 0 0 0 0 0 0 0 0 0 0 0 0 0 0 127 0" result="hardAlpha"/>
<feOffset dy="1"/>
<feComposite in2="hardAlpha" operator="arithmetic" k2="-1" k3="1"/>
<feColorMatrix type="matrix" values="0 0 0 0 1 0 0 0 0 1 0 0 0 0 1 0 0 0 0.05 0"/>
<feBlend mode="normal" in2="effect2_innerShadow_196_6139" result="effect3_innerShadow_196_6139"/>
<feColorMatrix in="SourceAlpha" type="matrix" values="0 0 0 0 0 0 0 0 0 0 0 0 0 0 0 0 0 0 127 0" result="hardAlpha"/>
<feOffset dy="-10"/>
<feGaussianBlur stdDeviation="5"/>
<feComposite in2="hardAlpha" operator="arithmetic" k2="-1" k3="1"/>
<feColorMatrix type="matrix" values="0 0 0 0 0.831373 0 0 0 0 0.686275 0 0 0 0 0.215686 0 0 0 0.4 0"/>
<feBlend mode="overlay" in2="effect3_innerShadow_196_6139" result="effect4_innerShadow_196_6139"/>
</filter>
<clipPath id="bgblur_0_196_6139_clip_path" transform="translate(21 21)"><path d="M123 123C123 106.847 119.819 90.853 113.637 75.9299C107.456 61.0069 98.3958 47.4475 86.9741 36.0259C75.5525 24.6043 61.9931 15.5441 47.0701 9.36282C32.147 3.18149 16.1526 -7.06052e-07 0 0L5.3765e-06 123H123Z"/>
</clipPath><linearGradient id="paint0_linear_196_6139" x1="61.5" y1="243.473" x2="-19.5367" y2="28.6743" gradientUnits="userSpaceOnUse">
<stop stop-color="#FFFBED"/>
<stop offset="1" stop-color="#FFFBED"/>
</linearGradient>
<linearGradient id="paint1_linear_196_6139" x1="91.1523" y1="13.728" x2="91.1523" y2="57.1074" gradientUnits="userSpaceOnUse">
<stop stop-color="white"/>
<stop offset="1" stop-color="white" stop-opacity="0"/>
</linearGradient>
</defs>
</svg>
