<svg width="50" height="50" viewBox="0 0 50 50" fill="none" xmlns="http://www.w3.org/2000/svg">
<rect width="50" height="50" rx="12" fill="#D4AF37"/>
<path d="M26 19H24V20C24 20.2652 24.1054 20.5196 24.2929 20.7071C24.4804 20.8946 24.7348 21 25 21C25.2652 21 25.5196 20.8946 25.7071 20.7071C25.8946 20.5196 26 20.2652 26 20V19Z" fill="black"/>
<path fill-rule="evenodd" clip-rule="evenodd" d="M19 15V17H20V20C20 21.3261 20.5268 22.5979 21.4645 23.5355C22.4021 24.4732 23.6739 25 25 25C23.6739 25 22.4021 25.5268 21.4645 26.4645C20.5268 27.4021 20 28.6739 20 30V33H19V35H31V33H30V30C30 28.6739 29.4732 27.4021 28.5355 26.4645C27.5979 25.5268 26.3261 25 25 25C25.6566 25 26.3068 24.8707 26.9134 24.6194C27.52 24.3681 28.0712 23.9998 28.5355 23.5355C28.9998 23.0712 29.3681 22.52 29.6194 21.9134C29.8707 21.3068 30 20.6566 30 20V17H31V15H19ZM22 17H28V20C28 20.7956 27.6839 21.5587 27.1213 22.1213C26.5587 22.6839 25.7956 23 25 23C24.2044 23 23.4413 22.6839 22.8787 22.1213C22.3161 21.5587 22 20.7956 22 20V17ZM22 30V33H28V30C28 29.2044 27.6839 28.4413 27.1213 27.8787C26.5587 27.3161 25.7956 27 25 27C24.2044 27 23.4413 27.3161 22.8787 27.8787C22.3161 28.4413 22 29.2044 22 30Z" fill="black"/>
</svg>
