<svg width="24" height="24" viewBox="0 0 24 24" fill="none" xmlns="http://www.w3.org/2000/svg">
<path d="M9.71859 8.66566C10.3239 8.35584 11.0239 8.28584 11.6786 8.46966C13.3436 8.76366 14.6186 10.3317 14.6186 12.0957V14.9377C14.6186 16.0157 13.7356 16.8977 12.6586 16.8977H10.6986L8.64059 21.0137C8.53225 21.2396 8.3764 21.4394 8.18369 21.5996C7.99098 21.7597 7.76597 21.8763 7.52403 21.9414C7.2821 22.0066 7.02895 22.0187 6.78189 21.977C6.53484 21.9352 6.29972 21.8406 6.09259 21.6997C5.30859 21.2097 5.11259 20.2297 5.50459 19.4457L6.77859 16.8977" stroke="black" stroke-width="1.5" stroke-miterlimit="10" stroke-linecap="round" stroke-linejoin="round"/>
<path d="M3.34734 16.898L2.07334 19.446C1.68134 20.23 1.87734 21.21 2.66134 21.7C2.86846 21.841 3.10359 21.9356 3.35064 21.9773C3.59769 22.0191 3.85084 22.007 4.09278 21.9418C4.33471 21.8767 4.55973 21.7601 4.75244 21.5999C4.94514 21.4398 5.101 21.24 5.20934 21.014L5.37934 20.746M21.0663 22.002H13.2263M16.1663 8.28205H18.1263C19.7923 8.28205 21.0663 9.55605 21.0663 11.222V14.162M21.0663 14.162H20.0863C19.0083 14.162 18.1263 15.044 18.1263 16.122V22.002H23.0263V16.122C23.0263 15.044 22.1443 14.162 21.0663 14.162ZM8.24734 13.86H2.66134C2.51071 13.8579 2.36432 13.8098 2.24174 13.7223C2.11916 13.6347 2.02622 13.5118 1.97534 13.37L0.995339 9.84205C0.897339 9.35205 1.19134 8.96005 1.68134 8.96005H6.38534C6.67934 8.96005 6.97334 9.15605 7.07134 9.45005L8.24734 13.86ZM8.24734 13.86H11.1873M10.6973 6.89805C11.0191 6.89805 11.3377 6.83468 11.6349 6.71155C11.9322 6.58843 12.2022 6.40796 12.4298 6.18046C12.6573 5.95296 12.8377 5.68287 12.9608 5.38562C13.084 5.08837 13.1473 4.76979 13.1473 4.44805C13.1473 4.12631 13.084 3.80772 12.9608 3.51047C12.8377 3.21322 12.6573 2.94314 12.4298 2.71564C12.2022 2.48813 11.9322 2.30767 11.6349 2.18454C11.3377 2.06142 11.0191 1.99805 10.6973 1.99805C10.0476 1.99805 9.42439 2.25617 8.96493 2.71564C8.50546 3.1751 8.24734 3.79827 8.24734 4.44805C8.24734 5.09783 8.50546 5.72099 8.96493 6.18046C9.42439 6.63992 10.0476 6.89805 10.6973 6.89805Z" stroke="black" stroke-width="1.5" stroke-miterlimit="10" stroke-linecap="round" stroke-linejoin="round"/>
</svg>
