<svg width="24" height="24" viewBox="0 0 24 24" fill="none" xmlns="http://www.w3.org/2000/svg">
<g clip-path="url(#clip0_196_8370)">
<path d="M21.3076 13.3362V8.64081C21.3076 7.97443 21.8529 7.43256 22.523 7.43256C22.6817 7.43251 22.8388 7.46373 22.9854 7.52444C23.132 7.58514 23.2652 7.67415 23.3773 7.78636C23.4895 7.89857 23.5785 8.03179 23.6391 8.1784C23.6998 8.32501 23.731 8.48214 23.7309 8.64081V15.0702C23.7305 15.957 23.4136 16.8146 22.8372 17.4886L18.8281 21.7463C18.4303 22.1209 18.3328 22.4524 18.3328 22.9549V23.7301H13.9689L13.964 21.8858C13.964 21.1834 13.9066 20.2448 14.7856 19.3238L19.8729 14.2156C20.0502 14.0385 20.2895 13.9373 20.5401 13.9334C20.7907 13.9296 21.0329 14.0233 21.2157 14.1949C21.3984 14.3664 21.5072 14.6023 21.5191 14.8527C21.531 15.103 21.4451 15.3482 21.2795 15.5363L18.8259 18.1647C18.6669 18.3511 18.3976 18.7024 18.2641 19.1329C18.1921 19.3564 18.1715 19.5743 18.1674 19.8244H18.9571C18.9601 19.6463 18.9736 19.5031 19.016 19.3703C19.0933 19.1221 19.247 18.8986 19.3629 18.7553L21.8536 16.0216C22.1667 15.7058 22.3385 15.2971 22.3385 14.8673C22.3385 14.2219 21.9504 13.6283 21.3084 13.3358L21.3076 13.3362ZM2.92325 13.3362V8.64081C2.92325 7.97443 2.378 7.43256 1.70788 7.43256C1.54921 7.43251 1.39209 7.46373 1.2455 7.52444C1.0989 7.58514 0.965712 7.67415 0.853536 7.78636C0.74136 7.89857 0.652398 8.03179 0.591736 8.1784C0.531074 8.32501 0.499902 8.48214 0.5 8.64081V15.0702C0.5 15.9593 0.819875 16.8181 1.394 17.4886L5.4035 21.7463C5.801 22.1209 5.89888 22.4524 5.89888 22.9549V23.7301H10.2628L10.2676 21.8858C10.2676 21.1834 10.325 20.2448 9.446 19.3238L4.35875 14.2156C4.18141 14.0385 3.94214 13.9373 3.69155 13.9334C3.44095 13.9296 3.19868 14.0233 3.01597 14.1949C2.83327 14.3664 2.72445 14.6023 2.71253 14.8527C2.70062 15.103 2.78654 15.3482 2.95213 15.5363L5.40613 18.1647C5.56513 18.3511 5.83438 18.7024 5.96788 19.1329C6.04025 19.3564 6.0605 19.5743 6.06463 19.8244H5.27488C5.27188 19.6463 5.25875 19.5031 5.21563 19.3703C5.13875 19.1221 4.98463 18.8986 4.86875 18.7553L2.378 16.0219C2.06488 15.7062 1.89313 15.2971 1.89313 14.8677C1.89313 14.2219 2.28125 13.6287 2.92325 13.3362ZM12.5746 2.29656C12.8494 2.29656 13.113 2.18739 13.3073 1.99308C13.5016 1.79877 13.6108 1.53523 13.6108 1.26043C13.6108 0.985634 13.5016 0.722092 13.3073 0.527781C13.113 0.333469 12.8494 0.224307 12.5746 0.224307C12.2998 0.224307 12.0363 0.333469 11.842 0.527781C11.6477 0.722092 11.5385 0.985634 11.5385 1.26043C11.5385 1.53523 11.6477 1.79877 11.842 1.99308C12.0363 2.18739 12.2998 2.29656 12.5746 2.29656ZM6.9545 2.30218C6.81701 2.30277 6.68075 2.27626 6.55351 2.22416C6.42628 2.17205 6.31056 2.09538 6.21297 1.99853C6.11539 1.90167 6.03785 1.78654 5.98479 1.65969C5.93173 1.53285 5.90419 1.3968 5.90375 1.25931C5.90424 1.12185 5.93182 0.985832 5.9849 0.859035C6.03798 0.732237 6.11552 0.617141 6.2131 0.520326C6.31069 0.423511 6.42639 0.346874 6.5536 0.294795C6.68081 0.242715 6.81704 0.216214 6.9545 0.216807C7.535 0.216807 8.00675 0.683307 8.00675 1.25931C8.00675 1.83643 7.535 2.30218 6.9545 2.30218ZM17.7215 6.30118C17.8169 6.30113 17.9114 6.28229 17.9996 6.24572C18.0877 6.20915 18.1678 6.15558 18.2353 6.08806C18.3027 6.02054 18.3562 5.94039 18.3927 5.8522C18.4292 5.76401 18.4479 5.66949 18.4479 5.57406C18.4478 5.47862 18.429 5.38412 18.3924 5.29597C18.3558 5.20782 18.3023 5.12773 18.2348 5.06028C18.1672 4.99283 18.0871 4.93934 17.9989 4.90286C17.9107 4.86638 17.8162 4.84763 17.7208 4.84768C17.528 4.84778 17.3432 4.92444 17.207 5.06081C17.0707 5.19717 16.9943 5.38206 16.9944 5.57481C16.9945 5.76755 17.0711 5.95237 17.2075 6.08859C17.3439 6.22481 17.5288 6.30128 17.7215 6.30118Z" fill="black"/>
<path d="M18.7741 6.66004H16.8139C16.8049 6.66004 16.1581 6.60116 16.1581 6.60116L15.3372 3.73991C15.0068 2.58791 14.0408 2.62316 14.0408 2.62316H11.3836C11.3836 2.62316 10.4183 2.58791 10.0879 3.73991L9.68257 5.14879L9.27833 3.73991C8.94607 2.58791 7.9827 2.62316 7.9827 2.62316H5.92657C5.92657 2.62316 4.96057 2.58791 4.6302 3.73991L3.80257 6.62329C3.72382 6.89329 3.87157 7.09804 4.10782 7.16629C4.34332 7.23341 4.58445 7.11454 4.64482 6.89966L5.45107 4.08904L5.8437 4.08829L4.66695 8.95466H5.70682V12.4114C5.70682 12.696 5.93632 12.9278 6.2217 12.9278C6.50632 12.9278 6.7392 12.696 6.7392 12.4114V8.95466H7.17532V12.4114C7.17532 12.696 7.4052 12.9278 7.68983 12.9278C7.82701 12.928 7.95866 12.8737 8.05584 12.7769C8.15302 12.6801 8.20778 12.5486 8.20808 12.4114V8.95466H9.22995L8.06557 4.08829L8.4567 4.08904L9.25395 6.87004C9.26745 6.91804 9.2882 6.96091 9.3162 6.99866C9.3942 7.11679 9.53032 7.18204 9.68182 7.17716C9.83332 7.18204 9.9687 7.11716 10.0467 7.00091C10.0793 6.95844 10.1025 6.90946 10.1146 6.85729L10.9077 4.08866L11.2692 4.08791V12.3109C11.2692 12.6469 11.5441 12.9184 11.8793 12.9184C12.2149 12.9184 12.4868 12.6469 12.4868 12.3109V7.63241H12.9361V12.3109C12.9361 12.6469 13.2083 12.9184 13.5428 12.9184C13.8792 12.9184 14.1548 12.6469 14.1548 12.3109V4.08791L14.5478 4.08866L15.3196 6.89929C15.3616 7.03766 15.4771 7.12916 15.6154 7.16441C15.6215 7.16591 15.6244 7.16854 15.6293 7.17004C15.7523 7.19779 16.3193 7.35866 16.7356 7.47754V12.5775C16.7402 12.6878 16.7873 12.7921 16.8669 12.8685C16.9466 12.9448 17.0527 12.9875 17.1631 12.9875C17.2735 12.9875 17.3796 12.9448 17.4592 12.8685C17.5389 12.7921 17.586 12.6878 17.5906 12.5775V10.0298H17.9251V12.5775C17.9251 12.813 18.1159 13.0039 18.3514 13.0039C18.5869 13.0039 18.7804 12.813 18.7804 12.5775V7.81354H19.1086V9.42754C19.1086 9.60491 19.2522 9.74741 19.4266 9.74741C19.4683 9.74732 19.5096 9.73894 19.548 9.72276C19.5865 9.70658 19.6213 9.68293 19.6506 9.65317C19.6798 9.62341 19.7028 9.58814 19.7183 9.54941C19.7338 9.51068 19.7415 9.46925 19.7408 9.42754V7.59154C19.7416 7.07741 19.2889 6.66004 18.7748 6.66004H18.7741Z" fill="black"/>
</g>
<defs>
<clipPath id="clip0_196_8370">
<rect width="24" height="24" fill="white"/>
</clipPath>
</defs>
</svg>
