<svg width="32" height="32" viewBox="0 0 32 32" fill="none" xmlns="http://www.w3.org/2000/svg">
<path fill-rule="evenodd" clip-rule="evenodd" d="M11 7C9.89543 7 9 7.89543 9 9V23C9 24.1046 9.89543 25 11 25H21C22.1046 25 23 24.1046 23 23V9C23 7.89543 22.1046 7 21 7H11ZM21 9H11V23H21V9Z" fill="#D4AF37"/>
<path d="M5 10H9V12H5V10Z" fill="#D4AF37"/>
<path d="M5 15H9V17H5V15Z" fill="#D4AF37"/>
<path d="M5 20H9V22H5V20Z" fill="#D4AF37"/>
<path d="M23 10H27V12H23V10Z" fill="#D4AF37"/>
<path d="M23 15H27V17H23V15Z" fill="#D4AF37"/>
<path d="M23 20H27V22H23V20Z" fill="#D4AF37"/>
<path d="M13 4H15V7H13V4Z" fill="#D4AF37"/>
<path d="M17 4H19V7H17V4Z" fill="#D4AF37"/>
<path d="M13 25H15V28H13V25Z" fill="#D4AF37"/>
<path d="M17 25H19V28H17V25Z" fill="#D4AF37"/>
<circle cx="13" cy="13" r="1" fill="#D4AF37"/>
<circle cx="19" cy="13" r="1" fill="#D4AF37"/>
<circle cx="16" cy="16" r="1.5" fill="#D4AF37"/>
<circle cx="13" cy="19" r="1" fill="#D4AF37"/>
<circle cx="19" cy="19" r="1" fill="#D4AF37"/>
</svg>
