<svg width="120" height="120" viewBox="0 0 120 120" fill="none" xmlns="http://www.w3.org/2000/svg">
<path d="M16.25 25C16.25 21.3533 17.6987 17.8559 20.2773 15.2773C22.8559 12.6987 26.3533 11.25 30 11.25H80C83.6467 11.25 87.1441 12.6987 89.7227 15.2773C92.3013 17.8559 93.75 21.3533 93.75 25V52.5C93.75 53.4946 93.3549 54.4484 92.6517 55.1516C91.9484 55.8549 90.9946 56.25 90 56.25C89.0054 56.25 88.0516 55.8549 87.3483 55.1516C86.6451 54.4484 86.25 53.4946 86.25 52.5V25C86.25 21.55 83.45 18.75 80 18.75H30C26.55 18.75 23.75 21.55 23.75 25V95C23.75 98.45 26.55 101.25 30 101.25H67.5C68.4946 101.25 69.4484 101.645 70.1516 102.348C70.8549 103.052 71.25 104.005 71.25 105C71.25 105.995 70.8549 106.948 70.1516 107.652C69.4484 108.355 68.4946 108.75 67.5 108.75H30C26.3533 108.75 22.8559 107.301 20.2773 104.723C17.6987 102.144 16.25 98.6467 16.25 95V25Z" fill="#FFFBED"/>
<path d="M90 66.25C90.9946 66.25 91.9484 66.6451 92.6517 67.3484C93.3549 68.0516 93.75 69.0054 93.75 70V72.09C98.885 72.28 103.75 76.065 103.75 81.665C103.75 82.6596 103.355 83.6134 102.652 84.3167C101.948 85.0199 100.995 85.415 100 85.415C99.0054 85.415 98.0516 85.0199 97.3483 84.3167C96.6451 83.6134 96.25 82.6596 96.25 81.665C96.25 80.955 95.44 79.585 93.345 79.585H85.815C85.2173 79.569 84.6337 79.7676 84.17 80.145C83.83 80.445 83.75 80.73 83.75 80.915C83.7423 81.1665 83.7727 81.4176 83.84 81.66C83.9063 81.709 83.9765 81.7525 84.05 81.79C84.25 81.89 84.55 82.01 85.015 82.15L97.105 85.655C98.485 86.065 100.255 86.745 101.645 88.22C103.145 89.82 103.75 91.87 103.75 94.085C103.75 99.42 98.97 102.915 94.185 102.915H93.75V105C93.75 105.995 93.3549 106.948 92.6517 107.652C91.9484 108.355 90.9946 108.75 90 108.75C89.0054 108.75 88.0516 108.355 87.3483 107.652C86.6451 106.948 86.25 105.995 86.25 105V102.91C81.115 102.72 76.25 98.935 76.25 93.335C76.25 92.3404 76.6451 91.3866 77.3484 90.6833C78.0516 89.9801 79.0054 89.585 80 89.585C80.9946 89.585 81.9484 89.9801 82.6517 90.6833C83.3549 91.3866 83.75 92.3404 83.75 93.335C83.75 94.045 84.56 95.415 86.655 95.415H94.185C94.7827 95.431 95.3663 95.2324 95.83 94.855C96.17 94.555 96.25 94.27 96.25 94.085C96.2577 93.8335 96.2273 93.5824 96.16 93.34C96.0937 93.291 96.0235 93.2475 95.95 93.21C95.75 93.11 95.45 92.99 94.985 92.85L82.895 89.345C81.515 88.935 79.745 88.255 78.355 86.78C76.855 85.18 76.25 83.13 76.25 80.915C76.25 75.58 81.03 72.085 85.815 72.085H86.25V70C86.25 69.0054 86.6451 68.0516 87.3483 67.3484C88.0516 66.6451 89.0054 66.25 90 66.25ZM31.25 55C31.25 54.0054 31.6451 53.0516 32.3483 52.3484C33.0516 51.6451 34.0054 51.25 35 51.25H37.5C38.4946 51.25 39.4484 51.6451 40.1516 52.3484C40.8549 53.0516 41.25 54.0054 41.25 55C41.25 55.9946 40.8549 56.9484 40.1516 57.6516C39.4484 58.3549 38.4946 58.75 37.5 58.75H35C34.0054 58.75 33.0516 58.3549 32.3483 57.6516C31.6451 56.9484 31.25 55.9946 31.25 55ZM46.25 55C46.25 54.0054 46.6451 53.0516 47.3484 52.3484C48.0516 51.6451 49.0054 51.25 50 51.25H75C75.9946 51.25 76.9484 51.6451 77.6516 52.3484C78.3549 53.0516 78.75 54.0054 78.75 55C78.75 55.9946 78.3549 56.9484 77.6516 57.6516C76.9484 58.3549 75.9946 58.75 75 58.75H50C49.0054 58.75 48.0516 58.3549 47.3484 57.6516C46.6451 56.9484 46.25 55.9946 46.25 55ZM31.25 70C31.25 69.0054 31.6451 68.0516 32.3483 67.3484C33.0516 66.6451 34.0054 66.25 35 66.25H37.5C38.4946 66.25 39.4484 66.6451 40.1516 67.3484C40.8549 68.0516 41.25 69.0054 41.25 70C41.25 70.9946 40.8549 71.9484 40.1516 72.6516C39.4484 73.3549 38.4946 73.75 37.5 73.75H35C34.0054 73.75 33.0516 73.3549 32.3483 72.6516C31.6451 71.9484 31.25 70.9946 31.25 70ZM46.25 70C46.25 69.0054 46.6451 68.0516 47.3484 67.3484C48.0516 66.6451 49.0054 66.25 50 66.25H67.5C68.4946 66.25 69.4484 66.6451 70.1516 67.3484C70.8549 68.0516 71.25 69.0054 71.25 70C71.25 70.9946 70.8549 71.9484 70.1516 72.6516C69.4484 73.3549 68.4946 73.75 67.5 73.75H50C49.0054 73.75 48.0516 73.3549 47.3484 72.6516C46.6451 71.9484 46.25 70.9946 46.25 70ZM31.25 85C31.25 84.0054 31.6451 83.0516 32.3483 82.3483C33.0516 81.6451 34.0054 81.25 35 81.25H37.5C38.4946 81.25 39.4484 81.6451 40.1516 82.3483C40.8549 83.0516 41.25 84.0054 41.25 85C41.25 85.9946 40.8549 86.9484 40.1516 87.6517C39.4484 88.3549 38.4946 88.75 37.5 88.75H35C34.0054 88.75 33.0516 88.3549 32.3483 87.6517C31.6451 86.9484 31.25 85.9946 31.25 85ZM46.25 85C46.25 84.0054 46.6451 83.0516 47.3484 82.3483C48.0516 81.6451 49.0054 81.25 50 81.25H60C60.9946 81.25 61.9484 81.6451 62.6516 82.3483C63.3549 83.0516 63.75 84.0054 63.75 85C63.75 85.9946 63.3549 86.9484 62.6516 87.6517C61.9484 88.3549 60.9946 88.75 60 88.75H50C49.0054 88.75 48.0516 88.3549 47.3484 87.6517C46.6451 86.9484 46.25 85.9946 46.25 85ZM30 32.5C30 30.17 30 29.005 30.38 28.085C30.8885 26.8623 31.8614 25.8913 33.085 25.385C34.005 25 35.17 25 37.5 25H72.5C74.83 25 75.995 25 76.915 25.38C78.1377 25.8885 79.1087 26.8614 79.615 28.085C80 29.005 80 30.17 80 32.5C80 34.83 80 35.995 79.62 36.915C79.1115 38.1377 78.1386 39.1087 76.915 39.615C75.995 40 74.83 40 72.5 40H37.5C35.17 40 34.005 40 33.085 39.62C31.8623 39.1115 30.8913 38.1386 30.385 36.915C30 35.995 30 34.83 30 32.5Z" fill="#FFFBED"/>
</svg>
