<svg width="32" height="32" viewBox="0 0 32 32" fill="none" xmlns="http://www.w3.org/2000/svg">
<path fill-rule="evenodd" clip-rule="evenodd" d="M4 3C2.89543 3 2 3.89543 2 5V21C2 22.1046 2.89543 23 4 23H14V25H12C11.4477 25 11 25.4477 11 26C11 26.5523 11.4477 27 12 27H20C20.5523 27 21 26.5523 21 26C21 25.4477 20.5523 25 20 25H18V23H28C29.1046 23 30 22.1046 30 21V5C30 3.89543 29.1046 3 28 3H4ZM28 5H4V21H28V5Z" fill="#D4AF37"/>
<circle cx="16" cy="18" r="1.5" fill="#D4AF37"/>
<path d="M13.1716 15.1716C13.9527 14.3905 15.0009 14 16 14C16.9992 14 18.0474 14.3905 18.8284 15.1716C19.2189 15.5621 19.2189 16.1953 18.8284 16.5858C18.4379 16.9763 17.8047 16.9763 17.4142 16.5858C17.0237 16.1953 16.5118 16 16 16C15.4882 16 14.9763 16.1953 14.5858 16.5858C14.1953 16.9763 13.5621 16.9763 13.1716 16.5858C12.7811 16.1953 12.7811 15.5621 13.1716 15.1716Z" fill="#D4AF37"/>
<path d="M10.3431 12.3431C11.8433 10.843 13.8783 10 16 10C18.1217 10 20.1566 10.843 21.6569 12.3431C22.0474 12.7337 22.0474 13.3668 21.6569 13.7574C21.2663 14.1479 20.6332 14.1479 20.2426 13.7574C19.1174 12.6321 17.5913 12 16 12C14.4087 12 12.8826 12.6321 11.7574 13.7574C11.3668 14.1479 10.7337 14.1479 10.3431 13.7574C9.95262 13.3668 9.95262 12.7337 10.3431 12.3431Z" fill="#D4AF37"/>
</svg>
