<svg width="120" height="120" viewBox="0 0 120 120" fill="none" xmlns="http://www.w3.org/2000/svg">
<g clip-path="url(#clip0_196_4654)">
<path d="M85 49.5852C83.7343 50.0208 82.3769 50.119 81.0617 49.87C79.7464 49.621 78.5189 49.0334 77.5 48.1652V81.3502L77.535 81.8452C77.785 83.6252 79.35 84.9952 81.25 84.9952C82.2305 85.0086 83.1762 84.6322 83.8793 83.9487C84.5824 83.2653 84.9855 82.3307 85 81.3502V49.5852ZM97.5 67.6602V91.2302C97.5 94.6802 94.7 97.4802 91.25 97.4802H28.75C25.3 97.4802 22.5 94.6802 22.5 91.2302V28.7302C22.5 25.2802 25.3 22.4802 28.75 22.4802H55C54.998 20.8832 55.4926 19.3252 56.4153 18.0218C57.338 16.7183 58.6432 15.7341 60.15 15.2052L60.215 15.1802L60.835 14.9802H28.75C25.1033 14.9802 21.6059 16.4289 19.0273 19.0075C16.4487 21.5861 15 25.0835 15 28.7302V91.2302C15 94.8769 16.4487 98.3743 19.0273 100.953C21.6059 103.532 25.1033 104.98 28.75 104.98H91.25C94.8967 104.98 98.3941 103.532 100.973 100.953C103.551 98.3743 105 94.8769 105 91.2302V69.5002C103.717 70.0356 102.297 70.1459 100.947 69.8147C99.5973 69.4836 98.3891 68.7284 97.5 67.6602ZM42.465 48.2252C42.3396 47.3293 41.8944 46.5089 41.2117 45.9153C40.529 45.3217 39.6547 44.9949 38.75 44.9952C37.758 44.9952 36.8065 45.3882 36.1036 46.0882C35.4008 46.7883 35.004 47.7382 35 48.7302V81.2652L35.035 81.7702C35.285 83.5902 36.85 84.9952 38.75 84.9952C40.82 84.9952 42.5 83.3252 42.5 81.2652V48.7302L42.465 48.2252ZM63.75 63.0852C63.5955 62.207 63.1332 61.4126 62.446 60.8445C61.7587 60.2764 60.8916 59.9717 60 59.9852C57.98 60.0002 56.23 61.6452 56.25 63.6502V81.8752C56.4034 82.7543 56.8653 83.5499 57.5526 84.119C58.2399 84.6881 59.1077 84.9935 60 84.9802C62.02 84.9602 63.77 83.3202 63.75 81.3152V63.0852ZM75.44 32.0602C73.7175 29.8366 71.3734 28.1747 68.705 27.2852L61.815 25.0452C61.286 24.8569 60.8283 24.5095 60.5046 24.0507C60.1809 23.5919 60.0071 23.0442 60.0071 22.4827C60.0071 21.9212 60.1809 21.3735 60.5046 20.9147C60.8283 20.4559 61.286 20.1085 61.815 19.9202L68.705 17.6802C70.7438 16.9761 72.5955 15.8168 74.1194 14.2903C75.6433 12.7638 76.7994 10.9102 77.5 8.8702L77.555 8.7002L79.795 1.8152C79.9812 1.28277 80.3283 0.821397 80.7883 0.494959C81.2483 0.168521 81.7984 -0.00683594 82.3625 -0.00683594C82.9266 -0.00683594 83.4767 0.168521 83.9367 0.494959C84.3967 0.821397 84.7438 1.28277 84.93 1.8152L87.165 8.7002C87.8637 10.7929 89.0403 12.694 90.6017 14.2528C92.163 15.8115 94.0661 16.985 96.16 17.6802L103.045 19.9202L103.185 19.9552C103.714 20.1435 104.172 20.4909 104.495 20.9497C104.819 21.4085 104.993 21.9562 104.993 22.5177C104.993 23.0792 104.819 23.6269 104.495 24.0857C104.172 24.5445 103.714 24.8919 103.185 25.0802L96.295 27.3202C94.2021 28.016 92.3 29.1898 90.7395 30.7485C89.1791 32.3072 88.0032 34.208 87.305 36.3002L85.065 43.1852L85 43.3552C84.784 43.8583 84.4211 44.2845 83.9589 44.5781C83.4967 44.8716 82.9567 45.0188 82.4094 45.0005C81.8622 44.9821 81.3332 44.799 80.8918 44.4751C80.4503 44.1513 80.1168 43.7017 79.935 43.1852L77.695 36.3002C77.1947 34.7679 76.4285 33.3335 75.44 32.0602ZM113.92 51.0652L110.09 49.8252C108.928 49.4367 107.872 48.7831 107.006 47.9162C106.14 47.0493 105.487 45.9928 105.1 44.8302L103.85 41.0102C103.746 40.7149 103.554 40.459 103.298 40.2779C103.043 40.0969 102.738 39.9997 102.425 39.9997C102.112 39.9997 101.807 40.0969 101.552 40.2779C101.296 40.459 101.104 40.7149 101 41.0102L99.76 44.8302C99.3797 45.9853 98.7379 47.037 97.8845 47.9034C97.0311 48.7698 95.9892 49.4275 94.84 49.8252L91.015 51.0652C90.7197 51.1687 90.4638 51.3614 90.2827 51.6167C90.1017 51.872 90.0045 52.1772 90.0045 52.4902C90.0045 52.8032 90.1017 53.1084 90.2827 53.3637C90.4638 53.6189 90.7197 53.8117 91.015 53.9152L94.84 55.1602C96.0056 55.5489 97.0645 56.2042 97.9325 57.0739C98.8005 57.9436 99.4536 59.0038 99.84 60.1702L101.08 63.9902C101.184 64.2855 101.376 64.5414 101.632 64.7225C101.887 64.9035 102.192 65.0007 102.505 65.0007C102.818 65.0007 103.123 64.9035 103.378 64.7225C103.634 64.5414 103.826 64.2855 103.93 63.9902L105.175 60.1702C105.563 59.0071 106.216 57.9503 107.083 57.0833C107.95 56.2163 109.007 55.5631 110.17 55.1752L113.995 53.9352C114.29 53.8317 114.546 53.639 114.727 53.3837C114.908 53.1284 115.006 52.8232 115.006 52.5102C115.006 52.1972 114.908 51.892 114.727 51.6367C114.546 51.3814 114.29 51.1887 113.995 51.0852L113.92 51.0652Z" fill="#D4AF37"/>
</g>
<defs>
<clipPath id="clip0_196_4654">
<rect width="120" height="120" fill="white"/>
</clipPath>
</defs>
</svg>
