<svg width="32" height="32" viewBox="0 0 32 32" fill="none" xmlns="http://www.w3.org/2000/svg">
<path d="M26.6671 13.333C26.9936 13.3331 27.3088 13.4529 27.5529 13.67C27.7969 13.887 27.9529 14.186 27.9911 14.5103L28.0004 14.6663V21.333C28.0004 22.7013 27.4745 24.0173 26.5314 25.0088C25.5884 26.0002 24.3003 26.5913 22.9337 26.6597L22.6671 26.6663H5.33373C5.08509 26.6664 4.84138 26.597 4.63012 26.4658C4.41887 26.3347 4.2485 26.1471 4.13825 25.9242C4.02799 25.7014 3.98225 25.4521 4.0062 25.2046C4.03014 24.9571 4.1228 24.7213 4.27373 24.5237L4.39106 24.3903L8.39107 20.3903C8.63101 20.1512 8.95298 20.0124 9.29158 20.002C9.63018 19.9917 9.96002 20.1106 10.2141 20.3347C10.4682 20.5587 10.6275 20.8711 10.6596 21.2083C10.6917 21.5455 10.5943 21.8824 10.3871 22.1503L10.2764 22.2757L8.5524 23.9997H22.6671C23.3398 23.9999 23.9878 23.7458 24.4811 23.2883C24.9744 22.8309 25.2766 22.2039 25.3271 21.533L25.3337 21.333V14.6663C25.3337 14.3127 25.4742 13.9736 25.7243 13.7235C25.9743 13.4735 26.3134 13.333 26.6671 13.333ZM26.6671 5.33301C26.9157 5.33293 27.1594 5.40239 27.3707 5.53352C27.5819 5.66466 27.7523 5.85225 27.8626 6.07512C27.9728 6.29798 28.0185 6.54724 27.9946 6.79472C27.9707 7.04221 27.878 7.27808 27.7271 7.47567L27.6097 7.60901L23.6097 11.609C23.3698 11.8481 23.0478 11.987 22.7092 11.9973C22.3706 12.0077 22.0408 11.8887 21.7867 11.6647C21.5326 11.4406 21.3733 11.1283 21.3412 10.791C21.3091 10.4538 21.4065 10.117 21.6137 9.84901L21.7244 9.72367L23.4484 7.99967H9.33373C8.66119 7.9998 8.01354 8.25404 7.52051 8.71146C7.02749 9.16888 6.72551 9.7957 6.67506 10.4663L6.66706 10.6663V17.333C6.66669 17.6728 6.53656 17.9997 6.30327 18.2468C6.06997 18.4939 5.75113 18.6427 5.41187 18.6626C5.07262 18.6825 4.73856 18.5721 4.47795 18.354C4.21735 18.1359 4.04987 17.8265 4.00973 17.489L4.0004 17.333V10.6663C4.0004 9.29802 4.52631 7.98204 5.46936 6.99059C6.41241 5.99915 7.70045 5.40809 9.06706 5.33967L9.33373 5.33301H26.6671Z" fill="#D4AF37"/>
</svg>
