<svg width="120" height="120" viewBox="0 0 120 120" fill="none" xmlns="http://www.w3.org/2000/svg">
<path d="M100 20C102.652 20 105.196 21.0536 107.071 22.9289C108.946 24.8043 110 27.3478 110 30V80C110 85.55 105.55 90 100 90H120V100H0V90H20C17.3478 90 14.8043 88.9464 12.9289 87.0711C11.0536 85.1957 10 82.6522 10 80V30C10 24.45 14.45 20 20 20H100ZM100 30H20V80H100V30ZM60 60C71.05 60 80 64.5 80 70V75H40V70C40 64.5 48.95 60 60 60ZM60 35C62.6522 35 65.1957 36.0536 67.0711 37.9289C68.9464 39.8043 70 42.3478 70 45C70 47.6522 68.9464 50.1957 67.0711 52.0711C65.1957 53.9464 62.6522 55 60 55C54.45 55 50 50.55 50 45C50 39.45 54.5 35 60 35Z" fill="#D4AF37"/>
</svg>
