<svg width="32" height="32" viewBox="0 0 32 32" fill="none" xmlns="http://www.w3.org/2000/svg">
<path d="M21.4993 2.5V3.906C20.679 4.04541 19.9001 4.36584 19.2192 4.844L18.1873 3.874L16.8123 5.344L17.8123 6.281C17.3559 6.94831 17.0467 7.70505 16.9053 8.501H15.4993V10.501H16.9053C17.0513 11.331 17.3793 12.087 17.8433 12.751L16.7803 13.781L18.2203 15.221L19.2502 14.157C19.9142 14.621 20.6702 14.949 21.5002 15.095V16.5H23.5002V15.094C24.2961 14.9528 25.0529 14.644 25.7203 14.188L26.6562 15.188L28.1263 13.812L27.1562 12.782C27.6262 12.112 27.9462 11.337 28.0942 10.5H29.4993V8.5H28.0933C27.9496 7.69022 27.6293 6.92202 27.1553 6.25L28.0933 5.312L26.6863 3.906L25.7493 4.844C25.0772 4.36991 24.309 4.04965 23.4993 3.906V2.5H21.4993ZM22.4993 5.813C22.9844 5.80981 23.4653 5.903 23.9141 6.08714C24.3629 6.27129 24.7707 6.54274 25.1138 6.88573C25.4569 7.22872 25.7285 7.63644 25.9127 8.08521C26.097 8.53398 26.1903 9.01488 26.1873 9.5C26.1873 11.555 24.5543 13.188 22.4993 13.188C20.4443 13.188 18.8113 11.555 18.8113 9.5C18.8113 7.445 20.4443 5.812 22.4993 5.812V5.813ZM9.52925 11.718L7.68725 12.468L8.40525 14.278C7.44955 14.8501 6.64557 15.6437 6.06125 16.592L4.28125 15.872L3.53125 17.717L5.31125 18.435C5.17081 18.9759 5.09759 19.5321 5.09325 20.091C5.09325 20.661 5.17825 21.217 5.31125 21.747L3.53125 22.467L4.28125 24.31L6.06125 23.59C6.64037 24.5506 7.44493 25.3555 8.40525 25.935L7.68525 27.715L9.53025 28.465L10.2503 26.685C10.7912 26.8254 11.3474 26.8987 11.9062 26.903C12.4762 26.903 13.0343 26.818 13.5623 26.685L14.2822 28.465L16.1252 27.715L15.4053 25.935C16.3545 25.3519 17.1484 24.5477 17.7192 23.591L19.5293 24.309L20.2793 22.466L18.4692 21.746C18.5992 21.216 18.6873 20.659 18.6873 20.09C18.6873 19.52 18.6003 18.962 18.4673 18.433L20.2803 17.715L19.5303 15.87L17.7203 16.59C17.1456 15.6443 16.352 14.8506 15.4062 14.276L16.1263 12.466L14.2812 11.716L13.5642 13.526C13.0226 13.3878 12.4663 13.3149 11.9072 13.309C11.3372 13.309 10.7812 13.395 10.2512 13.527L9.53125 11.717L9.52925 11.718ZM11.9053 15.31C14.5683 15.31 16.6853 17.43 16.6853 20.092C16.6873 22.755 14.5683 24.904 11.9053 24.904C11.2731 24.9048 10.647 24.7809 10.0628 24.5393C9.47867 24.2978 8.94788 23.9434 8.50089 23.4964C8.0539 23.0494 7.69948 22.5186 7.45793 21.9344C7.21639 21.3502 7.09246 20.7241 7.09325 20.092C7.09325 17.429 9.24325 15.31 11.9053 15.31Z" fill="#D4AF37"/>
</svg>
