<svg width="120" height="120" viewBox="0 0 120 120" fill="none" xmlns="http://www.w3.org/2000/svg">
<path d="M7.5 82.5H112.5V90H7.5V82.5ZM7.5 97.5H112.5V105H7.5V97.5ZM90 37.5C88.5166 37.5 87.0666 37.9399 85.8332 38.764C84.5999 39.5881 83.6386 40.7594 83.0709 42.1299C82.5032 43.5003 82.3547 45.0083 82.6441 46.4632C82.9335 47.918 83.6478 49.2544 84.6967 50.3033C85.7456 51.3522 87.082 52.0665 88.5368 52.3559C89.9917 52.6453 91.4997 52.4968 92.8701 51.9291C94.2406 51.3614 95.4119 50.4002 96.236 49.1668C97.0601 47.9334 97.5 46.4834 97.5 45C97.5 43.0109 96.7098 41.1032 95.3033 39.6967C93.8968 38.2902 91.9891 37.5 90 37.5ZM60 60C57.0333 60 54.1332 59.1203 51.6664 57.4721C49.1997 55.8238 47.2771 53.4812 46.1418 50.7403C45.0065 47.9994 44.7094 44.9834 45.2882 42.0737C45.867 39.1639 47.2956 36.4912 49.3934 34.3934C51.4912 32.2956 54.1639 30.867 57.0736 30.2882C59.9834 29.7094 62.9994 30.0065 65.7402 31.1418C68.4811 32.2771 70.8238 34.1997 72.472 36.6665C74.1203 39.1332 75 42.0333 75 45C74.995 48.9767 73.4131 52.7892 70.6011 55.6011C67.7892 58.4131 63.9767 59.995 60 60ZM60 37.5C58.5166 37.5 57.0666 37.9399 55.8332 38.764C54.5999 39.5881 53.6386 40.7594 53.0709 42.1299C52.5032 43.5003 52.3547 45.0083 52.6441 46.4632C52.9335 47.918 53.6478 49.2544 54.6967 50.3033C55.7456 51.3522 57.082 52.0665 58.5368 52.3559C59.9917 52.6453 61.4997 52.4968 62.8701 51.9291C64.2406 51.3614 65.4119 50.4002 66.236 49.1668C67.0601 47.9334 67.5 46.4834 67.5 45C67.5 43.0109 66.7098 41.1032 65.3033 39.6967C63.8968 38.2902 61.9891 37.5 60 37.5ZM30 37.5C28.5166 37.5 27.0666 37.9399 25.8332 38.764C24.5999 39.5881 23.6386 40.7594 23.0709 42.1299C22.5032 43.5003 22.3547 45.0083 22.6441 46.4632C22.9335 47.918 23.6478 49.2544 24.6967 50.3033C25.7456 51.3522 27.082 52.0665 28.5368 52.3559C29.9917 52.6453 31.4997 52.4968 32.8701 51.9291C34.2406 51.3614 35.4119 50.4002 36.236 49.1668C37.0601 47.9334 37.5 46.4834 37.5 45C37.5 43.0109 36.7098 41.1032 35.3033 39.6967C33.8968 38.2902 31.9891 37.5 30 37.5Z" fill="#D4AF37"/>
<path d="M105 75H15C13.0124 74.995 11.1076 74.2033 9.70217 72.7978C8.29672 71.3924 7.50495 69.4876 7.5 67.5V22.5C7.50495 20.5124 8.29672 18.6076 9.70217 17.2022C11.1076 15.7967 13.0124 15.005 15 15H105C106.988 15.005 108.892 15.7967 110.298 17.2022C111.703 18.6076 112.495 20.5124 112.5 22.5V67.5C112.497 69.4882 111.706 71.3941 110.3 72.8C108.894 74.2059 106.988 74.997 105 75ZM105 22.5H15V67.5H105V22.5Z" fill="#D4AF37"/>
</svg>
